<svg xmlns="http://www.w3.org/2000/svg" width="1200" height="400" viewBox="0 0 1200 400">
  <defs>
    <linearGradient id="bgL" x1="0%" y1="0%" x2="100%" y2="100%">
      <stop offset="0%" style="stop-color:#0f0820"/>
      <stop offset="50%" style="stop-color:#1a0a2e"/>
      <stop offset="100%" style="stop-color:#0d1a3a"/>
    </linearGradient>
    <linearGradient id="mitoGrad" x1="0%" y1="0%" x2="100%" y2="100%">
      <stop offset="0%" style="stop-color:#c0392b"/>
      <stop offset="100%" style="stop-color:#e74c3c"/>
    </linearGradient>
    <linearGradient id="realGrad" x1="0%" y1="0%" x2="100%" y2="100%">
      <stop offset="0%" style="stop-color:#16a34a"/>
      <stop offset="100%" style="stop-color:#22c55e"/>
    </linearGradient>
  </defs>
  <rect width="1200" height="400" fill="url(#bgL)"/>
  <g stroke="rgba(255,255,255,0.04)" stroke-width="1">
    <line x1="0" y1="80" x2="1200" y2="80"/>
    <line x1="0" y1="160" x2="1200" y2="160"/>
    <line x1="0" y1="240" x2="1200" y2="240"/>
    <line x1="0" y1="320" x2="1200" y2="320"/>
    <line x1="240" y1="0" x2="240" y2="400"/>
    <line x1="480" y1="0" x2="480" y2="400"/>
    <line x1="720" y1="0" x2="720" y2="400"/>
    <line x1="960" y1="0" x2="960" y2="400"/>
  </g>
  <ellipse cx="300" cy="200" rx="220" ry="160" fill="rgba(231,76,60,0.12)"/>
  <ellipse cx="900" cy="200" rx="220" ry="160" fill="rgba(34,197,94,0.12)"/>
  <line x1="600" y1="40" x2="600" y2="360" stroke="rgba(255,255,255,0.15)" stroke-width="2" stroke-dasharray="8,6"/>
  <circle cx="600" cy="200" r="36" fill="#1a0a2e" stroke="rgba(255,255,255,0.2)" stroke-width="1.5"/>
  <text x="600" y="207" text-anchor="middle" font-family="Montserrat,sans-serif" font-weight="900" font-size="18" fill="rgba(255,255,255,0.7)" letter-spacing="1">VS</text>
  <rect x="80" y="80" width="440" height="5" rx="3" fill="url(#mitoGrad)" opacity="0.8"/>
  <circle cx="200" cy="155" r="28" fill="rgba(231,76,60,0.2)" stroke="#e74c3c" stroke-width="2"/>
  <text x="200" y="163" text-anchor="middle" font-family="Montserrat,sans-serif" font-weight="900" font-size="26" fill="#e74c3c">✕</text>
  <text x="248" y="140" font-family="Montserrat,sans-serif" font-weight="900" font-size="11" fill="#e74c3c" letter-spacing="4" opacity="0.9">CREENCIA</text>
  <text x="248" y="168" font-family="Montserrat,sans-serif" font-weight="900" font-size="52" fill="#e74c3c" letter-spacing="-1">MITO</text>
  <text x="160" y="240" font-family="Montserrat,sans-serif" font-weight="900" font-size="14" fill="rgba(255,255,255,0.35)" letter-spacing="2">LO QUE CREEN</text>
  <rect x="80" y="262" width="440" height="1" fill="rgba(255,255,255,0.08)"/>
  <text x="160" y="298" font-family="Montserrat,sans-serif" font-weight="400" font-size="13" fill="rgba(255,255,255,0.45)">"Son muy caros"  ·  "No funcionan nublado"</text>
  <text x="160" y="320" font-family="Montserrat,sans-serif" font-weight="400" font-size="13" fill="rgba(255,255,255,0.45)">"Duran poco"  ·  "Dañan el techo"</text>
  <rect x="680" y="80" width="440" height="5" rx="3" fill="url(#realGrad)" opacity="0.8"/>
  <circle cx="780" cy="155" r="28" fill="rgba(34,197,94,0.2)" stroke="#22c55e" stroke-width="2"/>
  <text x="780" y="163" text-anchor="middle" font-family="Montserrat,sans-serif" font-weight="900" font-size="24" fill="#22c55e">✓</text>
  <text x="825" y="140" font-family="Montserrat,sans-serif" font-weight="900" font-size="11" fill="#22c55e" letter-spacing="4" opacity="0.9">LOS HECHOS</text>
  <text x="820" y="168" font-family="Montserrat,sans-serif" font-weight="900" font-size="52" fill="#22c55e" letter-spacing="-2">REALIDAD</text>
  <text x="760" y="240" font-family="Montserrat,sans-serif" font-weight="900" font-size="14" fill="rgba(255,255,255,0.35)" letter-spacing="2">LO QUE DEBES SABER</text>
  <rect x="680" y="262" width="440" height="1" fill="rgba(255,255,255,0.08)"/>
  <text x="760" y="298" font-family="Montserrat,sans-serif" font-weight="400" font-size="13" fill="rgba(255,255,255,0.45)">Precios bajaron 80%  ·  Funcionan con nubes</text>
  <text x="760" y="320" font-family="Montserrat,sans-serif" font-weight="400" font-size="13" fill="rgba(255,255,255,0.45)">30 años de vida  ·  Instalación segura</text>
  <rect x="0" y="368" width="1200" height="32" fill="rgba(0,0,0,0.3)"/>
  <text x="600" y="389" text-anchor="middle" font-family="Montserrat,sans-serif" font-weight="700" font-size="11" fill="rgba(255,255,255,0.3)" letter-spacing="3">SOLARDEPOT GUATEMALA · ENERGÍA SOLAR RESIDENCIAL</text>
</svg>
